# xmcd
#
# Track frame offsets:
#	150
#	22772
#	45495
#	69380
#	90835
#	116667
#	134682
#	159140
#	186142
#	207462
#	227535
#	250692
#	271195
#	283590
#
# Disc length: 4122 seconds
#
# Revision: 1
# Processed by: cddbd v1.5PL3 Copyright (c) Steve Scherf et al.
# Submitted via: CDex 1.50Beta5
#
DISCID=b010180e
DTITLE=近藤名奈 - BETTER DAYS
DYEAR=1900
DGENRE=Pop
TTITLE0=こんな日は早起きしてあなたに会いたい
TTITLE1=地球を蹴ってさか上がりして
TTITLE2=願い
TTITLE3=サラダ通りで会いましょう
TTITLE4=風の旋律を聴け
TTITLE5=春色のカーブ
TTITLE6=+1〜プラスワン〜
TTITLE7=手のひらのハーモニー
TTITLE8=少年のままでいい
TTITLE9=あなたは知らない
TTITLE10=Echoes〜地平線まで追いかけて〜
TTITLE11=Happy Endを探して
TTITLE12=こんな日は早起きしてあなたに会いたい
TTITLE13=ひとりじゃないから
EXTD=
EXTT0=
EXTT1=
EXTT2=
EXTT3=
EXTT4=
EXTT5=
EXTT6=
EXTT7=
EXTT8=
EXTT9=
EXTT10=
EXTT11=
EXTT12=
EXTT13=
PLAYORDER=
